<svg width="320" height="232" viewBox="0 0 320 232" fill="none" xmlns="http://www.w3.org/2000/svg">
<g clip-path="url(#clip0_1145_395)">
<path opacity="0.6" d="M112.899 139.721C87.3283 142.454 69.032 165.537 71.7264 190.747C74.4593 216.318 97.1822 234.653 122.753 231.92C147.964 229.226 166.659 206.465 163.926 180.894C161.232 155.683 138.11 137.026 112.899 139.721Z" fill="url(#paint0_linear_1145_395)"/>
<path opacity="0.6" d="M92.8103 5.999C98.9687 -4.66766 114.365 -4.66765 120.523 5.99902L207.703 156.999C213.861 167.666 206.163 180.999 193.847 180.999H19.4868C7.16995 180.999 -0.528032 167.666 5.63037 156.999L92.8103 5.999Z" fill="url(#paint1_linear_1145_395)"/>
<rect opacity="0.6" x="190.876" y="4.92773" width="119.68" height="119.68" rx="10.6667" transform="rotate(23.1776 190.876 4.92773)" fill="url(#paint2_linear_1145_395)"/>
</g>
<rect opacity="0.4" x="41" y="25.001" width="238" height="182" rx="3" stroke="#A7ADC4" stroke-width="2"/>
<defs>
<linearGradient id="paint0_linear_1145_395" x1="118.118" y1="138.867" x2="109.381" y2="214.468" gradientUnits="userSpaceOnUse">
<stop stop-color="#C5CADB"/>
<stop offset="1" stop-color="white" stop-opacity="0.1"/>
</linearGradient>
<linearGradient id="paint1_linear_1145_395" x1="191.541" y1="72.5974" x2="14.1316" y2="162.788" gradientUnits="userSpaceOnUse">
<stop stop-color="#C5CADB"/>
<stop offset="1" stop-color="white" stop-opacity="0.2"/>
</linearGradient>
<linearGradient id="paint2_linear_1145_395" x1="192.059" y1="69.964" x2="327.84" y2="80.2666" gradientUnits="userSpaceOnUse">
<stop stop-color="#C5CADB"/>
<stop offset="1" stop-color="white" stop-opacity="0.2"/>
</linearGradient>
<clipPath id="clip0_1145_395">
<rect width="236" height="180" fill="white" transform="translate(42 26)"/>
</clipPath>
</defs>
</svg>
